<svg width="56" height="56" viewBox="15 15 26 26" fill="none" xmlns="http://www.w3.org/2000/svg">
<rect width="56" height="56" rx="28" fill="white"/>
<path d="M26 30C26 30.5304 26.2107 31.0391 26.5858 31.4142C26.9609 31.7893 27.4696 32 28 32C28.5304 32 29.0391 31.7893 29.4142 31.4142C29.7893 31.0391 30 30.5304 30 30C30 29.4696 29.7893 28.9609 29.4142 28.5858C29.0391 28.2107 28.5304 28 28 28C27.4696 28 26.9609 28.2107 26.5858 28.5858C26.2107 28.9609 26 29.4696 26 30Z" stroke="#3193CC" stroke-width="2.5" stroke-linecap="round" stroke-linejoin="round"/>
<path d="M33.5552 25.75L31.3329 19M22.4437 25.75L24.666 19M20.2226 23.5H35.7774C36.0979 23.5 36.4145 23.5701 36.7057 23.7055C36.9968 23.841 37.2556 24.0386 37.4642 24.2848C37.6729 24.531 37.8265 24.82 37.9145 25.1319C38.0025 25.4438 38.0229 25.7714 37.9742 26.092L36.5797 34.138C36.4586 34.935 36.0597 35.6618 35.4552 36.1868C34.8507 36.7117 34.0805 37.0002 33.284 37H22.7148C21.9186 37 21.1487 36.7114 20.5444 36.1864C19.9401 35.6614 19.5413 34.9348 19.4203 34.138L18.0258 26.092C17.9771 25.7714 17.9975 25.4438 18.0855 25.1319C18.1735 24.82 18.3271 24.531 18.5358 24.2848C18.7444 24.0386 19.0032 23.841 19.2944 23.7055C19.5855 23.5701 19.9021 23.5 20.2226 23.5Z" stroke="#3193CC" stroke-width="2.5" stroke-linecap="round" stroke-linejoin="round"/>
</svg>
